<svg version="1.1" xmlns="http://www.w3.org/2000/svg" viewBox="-6267.1455014792255 -4133.494763616301 12534.29100295845 9716.308160241953" fill="none" stroke="black" stroke-width="0.6%" vector-effect="non-scaling-stroke">
    <path d="M 1557.82084 -2426.04228 A 22.5 11.80566 180 0 0 1564.35725 -2434.36188" />
    <path d="M 1557.82084 -2426.04228 L 1557.82084 -2437.80726" />
    <path d="M -1595.76776 -4052.9298 L -1595.76776 -4057.1758" />
    <path d="M -1600.35297 -4056.37243 A 22.5 11.80566 180 0 0 -1595.76776 -4052.9298 L 1461.57645 -2459.56151" />
    <path d="M -1579.86072 -4059.96289 L 1475.4038 -2467.67845 L -1043.57657 -988.98494 L -1045.43798 -987.86954 A 22.5 11.80566 180 0 0 -1050.11298 -980.66534 A 22.5 11.80566 180 0 0 -1012.6765 -971.83622 L -1011.64939 -972.34574 L 1552.20721 -2438.15606" />
    <path d="M -1012.6765 -956.51301 L -1012.6765 -971.83622" />
    <path d="M -1045.43798 -972.54633 A 22.5 11.80566 180 0 0 -1050.11298 -965.34213 A 22.5 11.80566 180 0 0 -1012.6765 -956.51301 L -1011.64939 -957.02253 L 1557.82084 -2426.04228" />
    <path d="M -1011.64939 -957.02253 L -1011.64939 -972.34574" />
    <path d="M 1557.82084 4109.30758 A 22.5 11.80566 180 0 0 1564.35725 4100.98798" />
    <path d="M 1557.82084 4109.30758 L 1557.82084 4093.98437" />
    <path d="M 1557.71328 4077.28874 A 22.5 11.80566 360 0 1 1564.35725 4085.66477 A 22.5 11.80566 360 0 1 1557.82084 4093.98437" />
    <path d="M -1564.05569 2450.34477 L 1557.71328 4077.28874" />
    <path d="M 6235.95238 3244.16621 L 1574.27939 4060.94079 L 1573.56931 4060.57073" />
    <path d="M -1560.88449 2437.75797 A 50 26.23481 180 0 0 -1577.98031 2439.33913 L -6251.33862 3288.57503 A 22.5 11.80566 180 0 0 -6266.1455 3299.66917 A 22.5 11.80566 180 0 0 -6235.95238 3310.76331 L -1574.27939 2493.98872 L 1461.24278 4075.98422" />
    <path d="M -1595.76776 2482.42006 L 1461.57645 4075.78835" />
    <path d="M -1595.76776 2482.42006 A 22.5 11.80566 360 0 1 -1602.41172 2474.04402" />
    <path d="M 1546.11389 4116.00069 L 1557.82084 4109.30758" />
    <path d="M 1546.11389 4116.00069 A 50 26.23481 180 0 0 1577.98031 4115.59039 L 6251.33862 3266.35449 A 22.5 11.80566 180 0 0 6266.1455 3255.26035 L 6266.1455 3270.58356 A 22.5 11.80566 360 0 1 6251.33862 3281.6777 L 6251.33862 3266.35449" />
    <path d="M 6266.1455 3255.26035 A 22.5 11.80566 180 0 0 6235.95238 3244.16621" />
    <path d="M 1573.56931 4084.23591 L 1564.35725 4089.10224" />
    <path d="M -1564.05569 2450.34477 A 22.5 11.80566 180 0 0 -1602.41172 2458.72081 L -1602.41172 2474.04402" />
    <path d="M -1602.41172 2458.72081 A 22.5 11.80566 180 0 0 -1595.76776 2467.09685 L 1475.4038 4067.67141 L -1043.57657 5546.36492 L -1045.43798 5547.48032 A 22.5 11.80566 180 0 0 -1050.11298 5554.68452 L -1050.11298 5570.00773 A 22.5 11.80566 180 0 0 -1012.6765 5578.83685 L -1012.6765 5563.51364 L -1011.64939 5563.00412 L 1557.82084 4093.98437" />
    <path d="M -1050.11298 5554.68452 A 22.5 11.80566 180 0 0 -1012.6765 5563.51364" />
    <path d="M -1011.64939 5578.32733 L -1011.64939 5563.00412" />
    <path d="M -1011.64939 5578.32733 L 1546.11389 4116.00069" />
    <path d="M 1577.98031 4130.9136 L 1577.98031 4115.59039" />
    <path d="M 1577.98031 4130.9136 L 6251.33862 3281.6777" />
    <path d="M 1528.326 4126.1704 A 50 26.23481 180 0 0 1577.98031 4130.9136" />
    <path d="M -1595.76776 2482.42006 L -1595.76776 2467.09685" />
    <path d="M -1574.27939 2509.31194 L -1574.27939 2493.98872" />
    <path d="M -1574.27939 2509.31194 L 1447.41543 4084.10116" />
    <path d="M -6235.95238 3326.08652 L -6235.95238 3310.76331" />
    <path d="M -6235.95238 3326.08652 L -1574.27939 2509.31194" />
    <path d="M -6235.95238 3326.08652 A 22.5 11.80566 360 0 1 -6266.1455 3314.99238" />
    <path d="M 1573.56931 -2438.61627 L 1573.56931 4084.23591" />
    <path d="M 1560.88449 -2428.06084 L 1560.88449 4079.36374" />
    <path d="M -1560.88449 2451.99748 L -1560.88449 -4034.75001" />
    <path d="M -1045.43798 5562.80353 A 22.5 11.80566 180 0 0 -1050.11298 5570.00773" />
    <path d="M -1012.6765 5578.83685 L -1011.64939 5578.32733" />
    <path d="M -992.35807 -4001.58738 L -987.03723 -3992.56492 L -987.03723 -3844.17004" />
    <path d="M -992.35807 -4001.58738 L -992.35807 -3846.94305" />
    <path d="M -982.80496 -4003.1384 L -977.48412 -3994.11593 L -987.03723 -3992.56492" />
    <path d="M -977.48412 -3839.19133 L -977.48412 -3994.11593" />
    <path d="M -982.80496 -4003.1384 L -992.35807 -4001.58738" />
    <path d="M -1525.64886 -4124.87337 A 50 26.23481 180 0 0 -1577.98031 -4130.9136 L -6251.33862 -3281.6777" />
    <path d="M -6235.95238 -3259.48942 A 22.5 11.80566 360 0 1 -6266.1455 -3270.58356 L -6266.1455 -3255.26035 A 22.5 11.80566 180 0 0 -6235.95238 -3244.16621 L -1574.27939 -4060.94079 L 1525.64886 -2445.37937 L 1525.64886 -2460.70258 A 50 26.23481 180 0 0 1577.98031 -2454.66234 L 6251.33862 -3303.89824" />
    <path d="M -6266.1455 -3270.58356 A 22.5 11.80566 360 0 1 -6251.33862 -3281.6777" />
    <path d="M -6235.95238 -3244.16621 L -6235.95238 -3259.48942 L -1574.27939 -4076.26401 L 1525.64886 -2460.70258" />
    <path d="M -1574.27939 -4060.94079 L -1574.27939 -4076.26401" />
    <path d="M 1577.98031 -2439.33913 L 1577.98031 -2454.66234" />
    <path d="M 1525.64886 -2445.37937 A 50 26.23481 180 0 0 1577.98031 -2439.33913 L 6251.33862 -3288.57503 A 22.5 11.80566 180 0 0 6266.1455 -3299.66917" />
    <path d="M 6251.33862 -3288.57503 L 6251.33862 -3303.89824" />
    <path d="M 6235.95238 -3326.08652 A 22.5 11.80566 360 0 1 6266.1455 -3314.99238 L 6266.1455 -3299.66917" />
    <path d="M 6266.1455 -3314.99238 A 22.5 11.80566 360 0 1 6251.33862 -3303.89824" />
    <path d="M 6235.95238 -3326.08652 L 1574.27939 -2509.31194 L -1525.64886 -4124.87337" />
    <path d="M 1564.35725 -2437.82132 L 1564.35725 -2434.36188" />
    <path d="M -1050.11298 -980.66534 L -1050.11298 -965.34213" />
    <path d="M 1564.35725 4085.66477 L 1564.35725 4100.98798" />
    <path d="M -6266.1455 3299.66917 L -6266.1455 3314.99238" />
</svg>