<svg version="1.1" xmlns="http://www.w3.org/2000/svg" viewBox="-609.3270994289464 -412.6243017072663 1218.654198857893 995.769304774791" fill="none" stroke="black" stroke-width="0.6%" vector-effect="non-scaling-stroke">
    <path d="M 148.70125 -197.05954 L 148.70125 -205.59984" />
    <path d="M 148.70125 -197.05954 A 22.5 11.49683 180 0 0 150.25771 -201.26126" />
    <path d="M -179.96606 -332.34507 L -179.96606 -337.79132" />
    <path d="M -185.73745 -336.79339 A 22.5 11.49683 180 0 0 -179.96606 -332.34507 L 59.74311 -217.98135" />
    <path d="M -164.54072 -340.45851 L 66.06962 -230.43579 L -35.94921 -29.60013" />
    <path d="M 6.80335 -22.57109 A 22.5 11.49683 0 0 1 -36.6402 -26.77281 A 22.5 11.49683 0 0 1 -35.94921 -29.60013" />
    <path d="M 6.80335 -7.09832 L 6.80335 -22.57109 L 143.52561 -205.60359" />
    <path d="M -36.6402 -11.30003 A 22.5 11.49683 180 0 0 6.80335 -7.09832 L 148.70125 -197.05954" />
    <path d="M -146.18419 205.56745 A 50 25.5485 180 0 0 -167.60229 208.03014 L -595.46524 311.57963 A 22.5 11.49683 180 0 0 -608.3271 321.96824 L -608.3271 337.44102" />
    <path d="M -578.81312 348.36496 A 22.5 11.49683 0 0 1 -608.3271 337.44102" />
    <path d="M -578.81312 348.36496 L -158.46621 275.6829 L -158.46621 260.21012 L 59.6002 364.24821" />
    <path d="M -158.46621 275.6829 L 53.27369 376.70265" />
    <path d="M 129.78575 410.21118 A 50 25.5485 180 0 0 167.60229 409.16161 L 595.46524 305.61212 L 595.46524 290.13935 A 22.5 11.49683 180 0 0 608.3271 279.75073 A 22.5 11.49683 180 0 0 579.51689 268.7153" />
    <path d="M 608.3271 295.2235 A 22.5 11.49683 0 0 1 595.46524 305.61212" />
    <path d="M 289.94999 318.77403 L 158.46851 341.50845" />
    <path d="M 167.60229 393.68884 L 595.46524 290.13935" />
    <path d="M 140.41552 395.98092 A 50 25.5485 180 0 0 167.60229 393.68884" />
    <path d="M 140.41552 395.98092 L 148.70125 384.88866 L 148.70125 369.41589 A 22.5 11.49683 180 0 0 150.25771 365.21418 L 150.25771 380.68695" />
    <path d="M 148.70125 384.88866 A 22.5 11.49683 180 0 0 150.25771 380.68695" />
    <path d="M -187.11067 241.19987 A 22.5 11.49683 180 0 0 -179.96606 249.60314 L -179.96606 234.13037 A 22.5 11.49683 360 0 1 -187.11067 225.7271 L -187.11067 241.19987 Z" />
    <path d="M -179.96606 249.60314 L 59.74311 363.96686" />
    <path d="M -578.81312 332.89218 L -158.46621 260.21012" />
    <path d="M -608.3271 321.96824 A 22.5 11.49683 180 0 0 -578.81312 332.89218" />
    <path d="M 158.46851 363.88041 L 150.25771 368.37378" />
    <path d="M 295.79942 337.74596 L 579.51689 287.93124 L 579.51689 -307.71988" />
    <path d="M 295.79942 337.74596 L 289.94999 329.04769" />
    <path d="M -578.81312 348.36496 L -578.81312 332.89218" />
    <path d="M 6.80335 574.84989 L 6.80335 559.37712 A 22.5 11.49683 0 0 1 -36.6402 555.1754 L -36.6402 570.64818 A 22.5 11.49683 180 0 0 6.80335 574.84989 L 140.41552 395.98092" />
    <path d="M 6.80335 559.37712 L 148.70125 369.41589" />
    <path d="M 150.25771 365.21418 A 22.5 11.49683 180 0 0 143.11311 356.81091" />
    <path d="M -149.25527 217.32383 L 143.11311 356.81091" />
    <path d="M -187.11067 225.7271 A 22.5 11.49683 360 0 1 -149.25527 217.32383" />
    <path d="M -179.96606 234.13037 L 66.06962 351.51242 L -35.94921 552.34808" />
    <path d="M 158.46851 -206.35053 L 158.46851 363.88041" />
    <path d="M 146.18419 -193.6899 L 146.18419 358.61663" />
    <path d="M -146.18419 218.78902 L -146.18419 -316.22795" />
    <path d="M 295.79942 -239.05584 L 295.79942 337.74596" />
    <path d="M 289.94999 -237.64019 L 289.94999 329.04769" />
    <path d="M -36.6402 555.1754 A 22.5 11.49683 0 0 1 -35.94921 552.34808" />
    <path d="M -112.06108 -404.74973 A 50 25.5485 180 0 0 -167.60229 -409.16161 L -595.46524 -305.61212" />
    <path d="M -578.81312 -284.29957 A 22.5 11.49683 0 0 1 -608.3271 -295.2235 L -608.3271 -279.75073 A 22.5 11.49683 180 0 0 -578.81312 -268.82679 L -158.46621 -341.50885 L 112.06108 -212.44201 L 112.06108 -227.91479 A 50 25.5485 180 0 0 167.60229 -223.50291 L 595.46524 -327.0524" />
    <path d="M -608.3271 -295.2235 A 22.5 11.49683 0 0 1 -595.46524 -305.61212" />
    <path d="M -578.81312 -268.82679 L -578.81312 -284.29957 L -158.46621 -356.98162 L 112.06108 -227.91479" />
    <path d="M -158.46621 -341.50885 L -158.46621 -356.98162" />
    <path d="M 112.06108 -212.44201 A 50 25.5485 180 0 0 167.60229 -208.03014 L 167.60229 -223.50291" />
    <path d="M 595.46524 -311.57963 L 595.46524 -327.0524" />
    <path d="M 167.60229 -208.03014 L 595.46524 -311.57963 A 22.5 11.49683 180 0 0 608.3271 -321.96824" />
    <path d="M 578.81312 -348.36496 A 22.5 11.49683 0 0 1 608.3271 -337.44102 L 608.3271 -321.96824" />
    <path d="M 608.3271 -337.44102 A 22.5 11.49683 0 0 1 595.46524 -327.0524" />
    <path d="M 578.81312 -348.36496 L 158.46621 -275.6829 L -112.06108 -404.74973" />
    <path d="M 167.60229 409.16161 L 167.60229 393.68884" />
    <path d="M 150.25771 -205.65238 L 150.25771 -201.26126" />
    <path d="M -36.6402 -26.77281 L -36.6402 -11.30003" />
    <path d="M 608.3271 279.75073 L 608.3271 295.2235" />
</svg>